<?xml version="1.0" encoding="UTF-8" standalone="no"?>
<!-- Created with Inkscape (http://www.inkscape.org/) -->

<svg
   xmlns:dc="http://purl.org/dc/elements/1.1/"
   xmlns:cc="http://creativecommons.org/ns#"
   xmlns:rdf="http://www.w3.org/1999/02/22-rdf-syntax-ns#"
   xmlns:svg="http://www.w3.org/2000/svg"
   xmlns="http://www.w3.org/2000/svg"
   xmlns:sodipodi="http://sodipodi.sourceforge.net/DTD/sodipodi-0.dtd"
   xmlns:inkscape="http://www.inkscape.org/namespaces/inkscape"
   width="110mm"
   height="75mm"
   viewBox="0 0 110 75"
   version="1.1"
   id="svg8"
   inkscape:version="0.92.2 (5c3e80d, 2017-08-06)"
   sodipodi:docname="cc3.svg">
  <defs
     id="defs2" />
  <sodipodi:namedview
     id="base"
     pagecolor="#ffffff"
     bordercolor="#666666"
     borderopacity="1.0"
     inkscape:pageopacity="0.0"
     inkscape:pageshadow="2"
     inkscape:zoom="0.7"
     inkscape:cx="587.49247"
     inkscape:cy="401.68796"
     inkscape:document-units="mm"
     inkscape:current-layer="layer1"
     showgrid="false"
     inkscape:window-width="1600"
     inkscape:window-height="837"
     inkscape:window-x="-8"
     inkscape:window-y="135"
     inkscape:window-maximized="1" />
  <metadata
     id="metadata5">
    <rdf:RDF>
      <cc:Work
         rdf:about="">
        <dc:format>image/svg+xml</dc:format>
        <dc:type
           rdf:resource="http://purl.org/dc/dcmitype/StillImage" />
        <dc:title></dc:title>
      </cc:Work>
    </rdf:RDF>
  </metadata>
  <g
     inkscape:label="Layer 1"
     inkscape:groupmode="layer"
     id="layer1"
     transform="translate(0,-222)">
    <g
       id="g874"
       transform="translate(-28.748444,166.7818)">
      <path
         style="fill:#cfcfcf;stroke-width:0.26458335"
         d="m 73.591965,122.71517 c 0.341775,-0.3638 0.680939,-0.66145 0.7537,-0.66145 0.07276,0 -0.147341,0.29765 -0.489117,0.66145 -0.341776,0.36381 -0.68094,0.66146 -0.7537,0.66146 -0.07276,0 0.147341,-0.29765 0.489117,-0.66146 z m 13.095407,-0.66308 c -0.264197,-0.29193 -0.431478,-0.57793 -0.371737,-0.63554 0.05974,-0.0576 0.32254,0.18124 0.583993,0.53079 0.261456,0.34955 0.428739,0.63554 0.371737,0.63554 -0.057,0 -0.319796,-0.23885 -0.583993,-0.53079 z m -22.304244,-3.04108 c 0.0054,-0.43657 0.06469,-0.58313 0.131773,-0.3257 0.06708,0.25743 0.06267,0.61462 -0.0098,0.79375 -0.07248,0.17913 -0.127362,-0.0315 -0.12197,-0.46805 z m 20.056754,-1.31029 v -1.44259 l -1.653646,-0.0939 -1.653646,-0.0939 1.785937,-0.051 1.785938,-0.051 v 1.5875 c 0,0.87312 -0.05953,1.5875 -0.132292,1.5875 -0.07276,0 -0.132291,-0.64916 -0.132291,-1.44258 z m -7.672917,0.56604 c 0,-0.0455 0.386953,-0.43249 0.859896,-0.8599 l 0.859895,-0.7771 -0.777105,0.85989 c -0.427408,0.47295 -0.814361,0.8599 -0.859895,0.8599 -0.04554,0 -0.08279,-0.0373 -0.08279,-0.0828 z m -17.462501,-1.37242 c 0.341776,-0.3638 0.68094,-0.66146 0.7537,-0.66146 0.07276,0 -0.147341,0.29766 -0.489116,0.66146 -0.341776,0.3638 -0.68094,0.66146 -0.7537,0.66146 -0.07276,0 0.147341,-0.29766 0.489116,-0.66146 z m -7.408333,-4.10104 v -1.05833 h 2.248958 2.248958 v 1.05833 1.05833 h -2.248958 -2.248958 z m 4.7625,-1.05833 v -2.11667 h 0.396875 0.396875 v 2.11667 2.11666 h -0.396875 -0.396875 z m 1.058333,0 v -2.11667 h 1.058334 1.058333 v 2.11667 2.11666 h -1.058333 -1.058334 z m 13.229167,0.79375 v -1.05834 h 2.248959 2.248958 v 1.05834 1.05833 H 73.19509 70.946131 Z m 4.7625,-1.05834 v -2.11666 h 0.396875 0.396875 v 2.11666 2.11667 h -0.396875 -0.396875 z m 1.058334,0 v -2.11666 h 1.058333 1.058334 v -3.3073 -3.30729 h -1.058334 -1.058333 v -5.027082 -5.027083 h 1.016688 1.016688 l 0.173127,4.564063 c 0.09522,2.510234 0.173493,6.302272 0.173937,8.426742 5.29e-4,2.12448 -0.07619,4.77362 -0.170307,5.88698 l -0.171114,2.0243 h -1.019511 -1.019508 z m 13.49375,0.79375 v -1.05833 h 2.248959 2.248958 v 1.05833 1.05834 h -2.248958 -2.248959 z m 4.7625,-1.05833 c 0,-1.23472 0.110244,-2.11667 0.264584,-2.11667 0.154339,0 0.264583,0.88195 0.264583,2.11667 0,1.23472 -0.110244,2.11667 -0.264583,2.11667 -0.15434,0 -0.264584,-0.88195 -0.264584,-2.11667 z m 0.79375,0 v -2.11667 h 1.190625 1.190625 v 2.11667 2.11667 H 97.00759 95.816965 Z m -43.920834,-1.32292 c 0,-0.15564 0.926041,-0.26458 2.248958,-0.26458 1.322917,0 2.248958,0.10894 2.248958,0.26458 0,0.15564 -0.926041,0.26459 -2.248958,0.26459 -1.322917,0 -2.248958,-0.10895 -2.248958,-0.26459 z m 20.182462,-0.45939 c 0.695616,-0.0547 1.767179,-0.054 2.38125,0.002 0.614074,0.0555 0.04493,0.10023 -1.264753,0.0994 -1.309688,-7.9e-4 -1.81211,-0.0462 -1.116497,-0.10088 z m 19.314584,-0.26458 c 0.695616,-0.0547 1.767178,-0.054 2.38125,0.002 0.614074,0.0555 0.04493,0.10023 -1.264753,0.0994 -1.309688,-7.9e-4 -1.812111,-0.0462 -1.116497,-0.10089 z m -59.60538,-4.4354 v -1.98438 h 0.79375 0.79375 v 1.98438 1.98437 h -0.79375 -0.79375 z m 28.484018,-4.67228 c -0.09548,-2.205948 -0.172754,-5.39087 -0.17172,-7.077602 0.0011,-1.686735 0.07778,-3.87046 0.170551,-4.852726 l 0.168672,-1.785937 h 0.755488 0.755492 v 1.852083 1.852084 h -0.79375 -0.79375 v 2.778125 2.778125 h 0.79375 0.79375 v 4.233333 4.233335 h -0.752441 -0.752441 z m 19.140983,-0.487098 v -4.233334 h 0.926042 0.926042 v 4.233334 4.233338 H 80.33884 79.412798 Z M 98.6364,99.522066 c -0.09548,-2.205951 -0.173601,-5.462704 -0.173601,-7.23723 0,-1.774529 0.07649,-3.958254 0.169984,-4.852726 l 0.169982,-1.626312 h 0.75606 0.756055 v 1.852084 1.852083 h -0.793748 -0.79375 v 2.778125 2.778125 h 0.79375 0.793748 v 4.233333 4.233332 h -0.752438 -0.752441 z m -46.740269,2.687904 v -0.79375 h 2.248958 2.248958 v 0.79375 0.79375 h -2.248958 -2.248958 z m 4.7625,-4.233338 v -5.027084 h 0.396875 0.396875 v 5.027084 5.027088 h -0.396875 -0.396875 z m 1.058333,0 v -5.027084 h 1.058334 1.058333 v 5.027084 5.027088 h -1.058333 -1.058334 z m 13.229167,3.968748 v -0.79375 h 2.248959 2.248958 v 0.79375 0.79375 H 73.19509 70.946131 Z m 4.7625,-4.233332 v -5.027083 h 0.396875 0.396875 v 5.027083 5.027082 h -0.396875 -0.396875 z m 14.552084,3.836462 v -0.66146 h 2.248959 2.248958 v 0.66146 0.66146 h -2.248958 -2.248959 z m 4.7625,-4.233337 c 0,-3.086806 0.09773,-4.894791 0.264584,-4.894791 0.166854,0 0.264583,1.807985 0.264583,4.894791 0,3.086807 -0.09773,4.894797 -0.264583,4.894797 -0.166855,0 -0.264584,-1.80799 -0.264584,-4.894797 z m 0.79375,0 v -4.894791 h 1.190625 1.190625 v 4.894791 4.894797 H 97.00759 95.816965 Z m -52.916668,2.38125 v -2.248958 h 3.96875 3.96875 v 2.248958 2.248957 h -3.96875 -3.96875 z M 62.214881,99.43184 v -2.248958 h 3.836458 3.836459 v 2.248958 2.24896 H 66.051339 62.214881 Z M 37.60863,99.961007 v -1.455209 h 2.513542 2.513542 v 1.455209 1.455213 H 40.122172 37.60863 Z m 43.920835,-0.79375 v -2.248959 h 3.836458 3.836459 v 2.248959 2.248963 h -3.836459 -3.836458 z m -49.741668,0.79375 v -0.926042 h 2.778125 2.778125 v 0.926042 0.926043 h -2.778125 -2.778125 z m 68.791673,-1.190625 v -2.116667 h 3.83645 3.83646 v 2.116667 2.116668 h -3.83646 -3.83645 z m 7.9375,0.132291 v -1.455208 h 2.51354 2.51354 v 1.455208 1.455207 h -2.51354 -2.51354 z M 51.896131,97.712048 v -2.116666 h 2.248958 2.248958 v 2.116666 2.116667 h -2.248958 -2.248958 z m 61.912499,1.190625 v -0.926041 l 4.56407,-0.02585 c 2.51023,-0.01421 5.27843,-0.03709 6.15156,-0.05083 0.87312,-0.01373 3.70086,-0.0021 6.28385,0.02585 l 4.69636,0.05083 v 0.926041 0.926042 h -10.84792 -10.84792 z m -42.862499,-1.5875 v -1.984375 h 2.248959 2.248958 v 1.984375 1.984375 H 73.19509 70.946131 Z M 90.260715,97.05059 v -1.984375 h 2.248959 2.248958 v 1.984375 1.984375 h -2.248958 -2.248959 z m -58.472918,0.264583 v -0.396875 h 2.778125 2.778125 v 0.396875 0.396875 h -2.778125 -2.778125 z m 82.020833,-0.79375 v -0.396875 h 10.84792 10.84792 v 0.396875 0.396875 h -10.84792 -10.84792 z m -76.2,-0.529166 v -0.661459 h 2.513542 2.513542 v 0.661459 0.661458 H 40.122172 37.60863 Z m -5.820833,-1.5875 v -1.984375 h 0.79375 0.79375 v 1.984375 1.984375 h -0.79375 -0.79375 z m 76.729173,0.396875 v -0.529167 h 2.51354 2.51354 v 0.529167 0.529166 h -2.51354 -2.51354 z M 42.900297,93.611007 v -0.926042 h 3.96875 3.96875 v 0.926042 0.926041 h -3.96875 -3.96875 z m 19.314584,-0.264584 v -0.926041 h 3.836458 3.836459 v 0.926041 0.926042 H 66.051339 62.214881 Z M 81.529465,93.08184 v -0.926042 h 3.836458 3.836459 v 0.926042 0.926042 h -3.836459 -3.836458 z m -29.633334,0.264583 v -0.396875 h 2.248958 2.248958 v 0.396875 0.396875 h -2.248958 -2.248958 z m 48.683339,-0.529166 v -0.926042 h 3.83645 3.83646 v 0.926042 0.926041 h -3.83646 -3.83645 z M 70.946131,93.08184 v -0.396875 h 2.248959 2.248958 v 0.396875 0.396875 H 73.19509 70.946131 Z m 19.314584,-0.264583 v -0.396875 h 2.248959 2.248958 v 0.396875 0.396875 H 92.509674 90.260715 Z M 79.412798,87.922465 v -1.852083 h 0.926042 0.926042 v 1.852083 1.852083 H 80.33884 79.412798 Z m -15.557122,-6.281325 1.773084,-0.09227 0.09512,-1.509556 0.09511,-1.509559 0.05003,1.653645 0.05003,1.653646 -1.918229,-0.05182 -1.91823,-0.05182 z M 53.025645,58.634944 c 0.257431,-0.06708 0.614619,-0.06267 0.79375,0.0098 0.179132,0.07248 -0.03149,0.127363 -0.468056,0.121971 -0.436562,-0.0054 -0.583125,-0.06469 -0.325694,-0.131774 z"
         id="path880"
         inkscape:connector-curvature="0" />
      <path
         style="fill:#9b9b9b;stroke-width:0.26458335"
         d="m 50.63936,125.04633 c 0.254661,-0.0665 0.67138,-0.0665 0.926041,0 0.254662,0.0666 0.0463,0.121 -0.46302,0.121 -0.509323,0 -0.717683,-0.0545 -0.463021,-0.121 z m 18.805769,-0.68429 c 0.413837,-0.13795 1.000667,-0.13795 1.414505,0 l 0.707249,0.23574 h -1.414502 -1.414502 z m -22.285276,-0.8252 c -0.327468,-0.34858 -0.480709,-0.7043 -0.340683,-0.79084 0.139976,-0.0865 0.411603,0.032 0.603614,0.26336 0.192011,0.23136 0.37356,0.58724 0.403442,0.79084 0.02988,0.2036 0.02609,0.37018 -0.0084,0.37018 -0.03452,0 -0.330593,-0.28509 -0.657945,-0.63354 z m 7.221475,0.24432 c 0.03142,-0.21407 0.143393,-0.47548 0.24883,-0.58092 0.105438,-0.10543 0.379447,-0.21926 0.608908,-0.25293 0.311895,-0.0458 0.264928,0.10085 -0.18607,0.58092 -0.3318,0.35318 -0.631515,0.64215 -0.666033,0.64215 -0.03452,0 -0.03705,-0.17515 -0.0056,-0.38922 z m 35.416366,-0.32233 c 0.254662,-0.0666 0.671381,-0.0666 0.926042,0 0.254662,0.0665 0.0463,0.121 -0.463021,0.121 -0.509323,0 -0.717682,-0.0545 -0.463021,-0.121 z m 3.80282,-0.82335 c -0.08378,-0.13555 0.07118,-0.44872 0.344339,-0.69593 0.273164,-0.24721 0.565206,-0.33857 0.648981,-0.20301 0.08378,0.13555 -0.07118,0.44872 -0.34434,0.69593 -0.273163,0.2472 -0.565205,0.33856 -0.64898,0.20301 z m -47.86754,-2.71218 c 0.0828,-0.64728 0.193696,-1.22649 0.246435,-1.28712 0.05274,-0.0606 0.09407,0.29656 0.09184,0.79375 -0.0022,0.4972 -0.113124,1.0764 -0.246434,1.28712 -0.156807,0.24785 -0.189231,-0.0324 -0.09184,-0.79375 z m 10.944449,-2.99998 -0.03581,-3.07169 h 0.418575 0.418576 l -0.05714,2.4474 c -0.03143,1.34607 -0.203677,2.72833 -0.38277,3.07169 l -0.325626,0.62429 z m 8.244675,2.21998 c 0,-0.50932 0.05445,-0.71768 0.121002,-0.46302 0.06655,0.25466 0.06655,0.67138 0,0.92604 -0.06655,0.25466 -0.121002,0.0463 -0.121002,-0.46302 z m 30.266482,-0.56224 c -0.09095,-0.45475 -0.165365,-1.82397 -0.165365,-3.04271 0,-1.33592 0.107625,-2.21588 0.271016,-2.21588 0.171093,0 0.259315,1.12183 0.239284,3.0427 -0.01746,1.67349 -0.06499,3.04271 -0.105651,3.04271 -0.04066,0 -0.148334,-0.37207 -0.239284,-0.82682 z m -43.292449,-0.76068 v -1.32291 h 2.248958 2.248958 v 1.32291 1.32292 h -2.248958 -2.248958 z m 19.05,-0.26458 v -1.32292 h 2.248959 2.248958 v 1.32292 1.32292 H 73.19509 70.946131 Z m 4.7625,-1.42281 v -2.54594 h 0.396875 0.396875 v 2.21656 c 0,1.6475 -0.101891,2.30112 -0.396875,2.54594 l -0.396875,0.32938 z m 14.552084,1.15823 v -1.32292 h 2.248959 2.248958 v 1.32292 1.32291 h -2.248958 -2.248959 z m 5.580846,-1.25678 -0.04081,-2.71197 h 1.198732 1.198731 v 1.14086 1.14087 l -0.801108,0.59229 c -0.440608,0.32575 -0.736322,0.6971 -0.657143,0.82522 0.07918,0.12812 0.01463,0.31288 -0.143475,0.41059 -0.158091,0.0977 -0.383442,0.43335 -0.50078,0.74589 -0.134503,0.35825 -0.22842,-0.43394 -0.254147,-2.14375 z m -38.102046,0.0741 -0.04974,-2.25691 h 1.071928 1.07193 v 1.16711 1.1671 l -0.859896,0.72356 c -0.472943,0.39795 -0.859896,0.81533 -0.859896,0.92751 0,0.11218 -0.07303,0.27699 -0.16229,0.36625 -0.08926,0.0893 -0.184674,-0.85332 -0.212034,-2.09462 z m 19.02745,-0.35532 v -2.16617 h 1.044506 1.044506 l 0.09718,-1.38906 c 0.06515,-0.93132 0.113303,-0.61123 0.146119,0.97135 l 0.04894,2.36042 -0.463021,0.54544 -0.463021,0.54544 0.529167,-0.39232 0.529167,-0.39231 -0.368433,0.46941 c -0.202639,0.25818 -0.432509,0.40534 -0.510823,0.32703 -0.07831,-0.0783 -0.478065,0.17921 -0.888338,0.57227 l -0.745948,0.71466 z m -16.61295,-8.45003 c 0.03069,-4.7658 0.09438,-7.444709 0.141547,-5.95312 l 0.08575,2.71198 h 0.784493 0.784495 v 5.95312 5.95313 h -0.926042 -0.926042 z m 19.258783,2.4474 v -5.95312 h 0.926042 0.926042 v 5.95312 5.95313 H 80.33884 79.412798 Z m 19.105801,-2.97656 c 0.03069,-4.76581 0.09439,-7.444716 0.141547,-5.95313 l 0.08575,2.71198 h 0.784492 0.784492 v 5.95313 5.95312 H 99.388841 98.4628 Z m -46.622468,7.47448 v -0.39688 h 2.248958 2.248958 v 0.39688 0.39687 h -2.248958 -2.248958 z m 19.05,-0.26459 v -0.39687 h 2.248959 2.248958 v 0.39687 0.39688 H 73.19509 70.946131 Z m 19.314584,-0.26458 v -0.39687 h 2.248959 2.248958 v 0.39687 0.39688 h -2.248958 -2.248959 z m -47.360418,-8.99583 v -2.77813 h 3.96875 3.96875 v 2.77813 2.77812 h -3.96875 -3.96875 z m 19.314584,-0.39688 v -2.64583 h 3.836458 3.836459 v 2.64583 2.64584 h -3.836459 -3.836458 z m 19.314584,-0.26458 v -2.64583 h 3.836458 3.836459 v 2.64583 2.64583 h -3.836459 -3.836458 z m 19.050005,-0.39688 v -2.77812 h 3.83645 3.83646 v 2.77812 2.77813 h -3.83646 -3.83645 z m -62.97084,-0.52916 v -1.71979 h 2.513542 2.513542 v 1.71979 1.71979 H 40.122172 37.60863 Z m 70.90834,-1.19063 v -1.5875 h 2.51354 2.51354 v 1.5875 1.5875 h -2.51354 -2.51354 z M 31.787797,101.6808 v -0.79375 h 2.778125 2.778125 v 0.79375 0.79375 h -2.778125 -2.778125 z m 82.020833,-1.05833 v -0.793755 h 10.84792 10.84792 v 0.793755 0.79375 H 124.65655 113.80863 Z M 78.883632,95.727673 v -3.042708 h -1.058334 -1.058333 v -6.591173 -6.59117 l 0.463021,0.06795 c 0.254661,0.03738 0.46302,0.203142 0.46302,0.368369 0,0.165227 0.252252,0.477094 0.560557,0.693042 0.308306,0.215945 0.629793,0.323392 0.714415,0.23877 0.08462,-0.08462 0.162579,3.908177 0.173239,8.872884 0.01066,4.964706 -0.04294,9.02674 -0.119103,9.02674 -0.07617,0 -0.138482,-1.369219 -0.138482,-3.042709 z M 33.18652,96.722486 c 0.842058,-0.05267 2.151746,-0.05218 2.910417,0.0011 0.758671,0.05326 0.06971,0.09635 -1.531015,0.09575 -1.600729,-5.29e-4 -2.22146,-0.04417 -1.379402,-0.09684 z m 85.97993,-0.796073 c 3.01955,-0.04245 7.96065,-0.04245 10.9802,0 3.01956,0.04245 0.54901,0.07718 -5.4901,0.07718 -6.03912,0 -8.50966,-0.03473 -5.4901,-0.07718 z M 37.60863,94.801632 v -0.529167 h 2.513542 2.513542 v 0.529167 0.529166 H 40.122172 37.60863 Z m 70.90834,-1.058334 v -0.529166 h 2.51354 2.51354 v 0.529166 0.529167 h -2.51354 -2.51354 z M 51.896131,91.626632 v -1.322917 h 2.248958 2.248958 v 1.322917 1.322916 h -2.248958 -2.248958 z m 4.7625,-5.720938 v -7.043856 l 0.396875,0.329377 0.396875,0.329377 v 6.714477 6.714479 h -0.396875 -0.396875 z m 1.058333,0.552255 v -6.491603 l 0.595313,0.330663 c 0.327422,0.181864 0.714375,0.334883 0.859896,0.340037 0.14552,0.0052 0.264583,0.148284 0.264583,0.318059 0,0.169772 0.0893,0.397975 0.198437,0.507116 0.109141,0.109141 0.198438,2.738438 0.198438,5.842884 v 5.644443 h -1.058333 -1.058334 z m -14.816667,5.300974 v -0.926041 h 3.96875 3.96875 v 0.926041 0.926042 h -3.96875 -3.96875 z m 28.045834,-0.396875 v -1.322916 h 2.248959 2.248958 v 1.322916 1.322917 H 73.19509 70.946131 Z m 4.770896,-5.959054 c 0.01437,-4.563647 0.117475,-7.223551 0.276174,-7.12547 0.139274,0.08608 0.189812,0.259114 0.112305,0.384524 -0.07751,0.12541 -0.01992,0.302805 0.127977,0.394208 0.170741,0.105524 0.268898,2.62332 0.268898,6.89745 v 6.731259 H 76.09823 75.694082 l 0.02294,-7.281971 z M 62.214881,91.49434 v -0.926042 h 3.836458 3.836459 v 0.926042 0.926042 h -3.836459 -3.836458 z m 28.045834,-0.396875 v -1.322917 h 2.248959 2.248958 v 1.322917 1.322917 h -2.248958 -2.248959 z m 4.7625,-5.644444 c 0,-5.397404 0.07452,-6.967402 0.33073,-6.967542 0.258101,-1.41e-4 0.314351,1.529865 0.256148,6.96736 -0.04565,4.264324 -0.173958,6.967543 -0.330729,6.967543 -0.158658,0 -0.256149,-2.651797 -0.256149,-6.967361 z m 0.79375,0.352777 c 0,-3.638021 0.09922,-6.614583 0.220486,-6.614583 0.121269,0 0.309784,0.0893 0.418925,0.198437 0.109141,0.109141 0.337344,0.203849 0.507116,0.210463 0.169775,0.0066 0.280101,0.15189 0.245169,0.322832 -0.03493,0.170942 0.173429,0.437607 0.46302,0.592595 l 0.526534,0.281792 v 5.811522 5.811526 H 97.00759 95.816965 Z m -14.2875,5.423959 v -0.926042 h 3.836458 3.836459 v 0.926042 0.926041 h -3.836459 -3.836458 z m 19.050005,-0.264584 v -0.926041 h 3.83645 3.83646 v 0.926041 0.926042 h -3.83646 -3.83645 z M 68.708473,89.528248 c -0.08373,-0.135467 -0.0013,-0.340477 0.182822,-0.455581 0.184274,-0.115104 0.494157,-0.233368 0.688628,-0.262808 0.245528,-0.03717 0.212781,0.102058 -0.107151,0.455581 -0.253407,0.280008 -0.494789,0.509108 -0.536408,0.509108 -0.04162,0 -0.144169,-0.110836 -0.227891,-0.2463 z m 18.994602,-0.14478 c 0,-0.220261 0.206463,-0.587314 0.458804,-0.815682 0.252341,-0.228364 0.526484,-0.305697 0.609206,-0.171849 0.08272,0.133847 -0.123738,0.500901 -0.458801,0.815679 -0.468255,0.439901 -0.609209,0.479663 -0.609209,0.171852 z m -27.55717,-4.172982 -0.04769,-3.638021 h 0.926042 0.926042 v 2.38125 2.38125 h -0.779254 -0.779253 l -0.0991,1.256771 c -0.0545,0.691224 -0.12056,-0.380339 -0.146789,-2.38125 z m -8.249774,1.389062 v -1.852083 h 2.248958 2.248958 v 1.852083 1.852084 h -2.248958 -2.248958 z m 19.05,-0.396875 v -1.984375 h 2.248959 2.248958 v 1.984375 1.984375 H 73.19509 70.946131 Z M 90.260715,85.93809 v -1.984375 h 2.248959 2.248958 v 1.984375 1.984375 h -2.248958 -2.248959 z m 8.248309,-1.389063 -0.04622,-3.505729 h 0.926041 0.926045 v 2.38125 2.38125 h -0.778539 -0.778537 l -0.10128,1.124479 c -0.05571,0.618464 -0.122081,-0.453098 -0.147505,-2.38125 z M 79.412798,83.689132 v -2.38125 h 0.926042 0.926042 v 2.38125 2.38125 H 80.33884 79.412798 Z M 51.896131,80.778715 v -2.116667 h 2.248958 2.248958 v 2.116667 2.116667 h -2.248958 -2.248958 z m 19.05,-0.264583 v -2.116667 h 2.248959 2.248958 v 2.116667 2.116666 H 73.19509 70.946131 Z m -6.760086,1.660615 1.972903,-0.09493 0.09737,-1.510446 0.09737,-1.510448 -0.01889,1.5875 -0.01889,1.5875 -2.051389,0.01789 -2.051391,0.01789 1.972903,-0.09493 z m 26.07467,-1.925199 v -2.116666 h 2.248959 2.248958 v 2.116666 2.116667 h -2.248958 -2.248959 z m -5.459616,-1.190625 c 7.94e-4,-1.455208 0.04512,-2.016765 0.09873,-1.247902 0.05362,0.768864 0.05306,1.959489 -0.0013,2.645834 -0.0543,0.686345 -0.09817,0.05728 -0.09748,-1.397932 z m -2.539291,2.057207 c 0.475549,-0.05889 1.189924,-0.05767 1.5875,0.0027 0.397576,0.06037 0.0085,0.10855 -0.864635,0.107066 -0.873125,-0.0016 -1.198414,-0.05088 -0.722865,-0.109765 z m 22.903342,-3.975436 c 0.0136,-0.472943 0.0444,-0.859896 0.0684,-0.859896 0.024,0 0.20702,0.201449 0.40674,0.447665 0.2054,0.253219 0.22769,0.366437 0.0513,0.260659 -0.19396,-0.116324 -0.35706,0.03949 -0.43153,0.412232 -0.0744,0.372316 -0.11033,0.273611 -0.0949,-0.26066 z M 93.7895,73.833402 c -0.113638,-0.181901 -0.230701,-0.489842 -0.260141,-0.684314 -0.03748,-0.247554 0.09727,-0.217115 0.44934,0.101507 0.276579,0.2503 0.439121,0.558241 0.361203,0.684315 -0.07792,0.126071 -0.187145,0.229222 -0.242728,0.229222 -0.05558,0 -0.194038,-0.148829 -0.307674,-0.33073 z M 70.879985,72.65449 c 0.327422,-0.06306 0.863204,-0.06306 1.190625,0 0.327422,0.06306 0.05953,0.114662 -0.595312,0.114662 -0.654844,0 -0.922734,-0.0516 -0.595313,-0.114662 z m 18.057813,-0.603578 c -0.270269,-0.172314 -0.05926,-0.201277 0.661459,-0.09079 0.582083,0.08923 1.107943,0.204922 1.168577,0.257085 0.06063,0.05216 -0.237024,0.09302 -0.661458,0.09079 -0.424437,-0.0022 -0.950296,-0.117917 -1.168578,-0.257085 z"
         id="path878"
         inkscape:connector-curvature="0" />
      <path
         style="fill:#292929;stroke-width:0.26458335"
         d="m 31.840713,129.40913 c -0.243189,-0.24319 -0.3175,-7.2983 -0.3175,-30.143599 V 69.439429 l 0.415774,-0.415774 0.415774,-0.415773 h 7.521727 7.521726 v -1.058334 -1.058333 h -2.38125 -2.38125 v -1.455209 -1.455208 h 4.233333 4.233334 l -0.05619,28.11198 c -0.03091,15.461592 -0.09448,26.830802 -0.141271,25.264922 l -0.08508,-2.84706 -0.718625,0.17221 c -0.395243,0.0947 -1.028372,0.32801 -1.406952,0.51844 -0.378581,0.19042 -1.056696,0.76577 -1.506921,1.27855 -0.450226,0.51278 -0.943486,1.38207 -1.096134,1.93175 -0.152648,0.54968 -0.277042,1.29707 -0.276432,1.66088 6.09e-4,0.3638 0.288574,1.27887 0.63992,2.03348 0.43797,0.94067 0.985381,1.60138 1.741134,2.10152 0.788795,0.522 1.528228,0.75853 2.59975,0.83162 l 1.497428,0.10213 1.190625,-0.63669 c 0.750183,-0.40116 1.45794,-1.06953 1.913245,-1.80677 0.397442,-0.64355 0.799278,-1.55704 0.892969,-2.02998 l 0.170348,-0.8599 H 54.04587 51.631547 V 98.902673 78.397465 h 2.497927 c 1.379881,0 2.571117,0.118425 2.661448,0.264583 0.08994,0.145521 0.275559,0.264584 0.412491,0.264584 0.149844,0 0.248968,-3.054851 0.248968,-7.672917 v -7.672917 h 4.497917 4.497916 v 1.455208 1.455209 h -2.778125 -2.778125 v 1.058333 1.058334 h 18.520834 18.520834 v -1.058334 -1.058333 h -1.852083 -1.852084 v -1.455209 -1.455208 h 3.350451 3.350454 l -0.17782,13.123852 -0.17783,13.12385 2.18519,-0.06133 c 1.20185,-0.03373 2.98885,-0.04587 3.97112,-0.02697 l 1.78594,0.03435 v 1.5875 1.5875 h 2.64583 2.64583 v 1.322917 1.322917 h 2.64584 2.64583 V 82.551423 c 0,-9.792523 -0.0791,-13.123101 -0.3175,-13.361458 -0.19884,-0.198839 -1.18769,-0.3175 -2.64583,-0.3175 h -2.32834 v -1.322917 -1.322917 h 1.85209 1.85208 v -1.190625 -1.190625 h -3.04271 -3.04271 v 6.836844 6.836842 l -0.53522,2.092846 c -0.29437,1.151065 -0.8794,2.828369 -1.30006,3.727344 -0.42066,0.898975 -1.2684,2.387256 -1.88386,3.307292 -0.61547,0.920036 -1.36089,1.940682 -1.65649,2.268103 -0.29559,0.327422 -0.65911,0.595313 -0.80781,0.595313 -0.1487,0 0.0981,-0.386953 0.5485,-0.859896 0.45038,-0.472943 1.35865,-1.701739 2.01839,-2.730656 0.65974,-1.028917 1.50267,-2.636261 1.87319,-3.571875 0.37051,-0.935614 0.85305,-2.475021 1.07231,-3.420906 0.29962,-1.292585 0.39962,-3.412186 0.40256,-8.532813 l 0.004,-6.813021 h 3.30729 3.30729 v 1.455208 1.455209 h -1.85208 -1.85208 v 1.058333 1.058334 h 2.13406 c 1.17373,0 2.36436,0.123251 2.64583,0.273892 l 0.51177,0.273892 v 13.219857 13.219859 h 8.20209 8.20208 v 3.042708 3.04271 h -8.20208 -8.20209 v 13.86232 13.86231 l -0.41851,0.1606 c -0.23018,0.0883 -19.851685,0.1606 -43.603337,0.1606 -33.235415,0 -43.257969,-0.0731 -43.50232,-0.3175 z m 87.195797,-13.90385 0.0685,-13.82448 h -2.64819 -2.6482 v 1.05833 1.05834 h -2.64583 -2.64583 v 1.4552 1.45521 h -3.96875 -3.96875 v 4.49792 4.49792 h -1.077015 -1.077013 l -1.304237,1.09975 c -1.039074,0.87616 -1.305422,1.26615 -1.31005,1.91823 -0.0032,0.45016 -0.222631,1.29574 -0.487632,1.87908 -0.265002,0.58333 -0.915668,1.44152 -1.445924,1.90709 -0.530257,0.46557 -1.470449,0.98284 -2.089317,1.14948 -0.618869,0.16665 -1.662229,0.22944 -2.318578,0.13954 -0.696373,-0.0954 -1.714696,-0.51914 -2.445174,-1.01753 -0.888555,-0.60623 -1.406808,-1.21436 -1.785937,-2.09567 -0.355447,-0.82626 -0.534128,-1.82265 -0.534128,-2.9785 v -1.73689 l -2.844271,0.005 -2.844271,0.005 -1.653646,1.60796 c -1.005202,0.97743 -1.655924,1.83141 -1.659456,2.17781 -0.0032,0.31342 -0.225943,1.05453 -0.494996,1.6469 -0.269052,0.59238 -0.941771,1.45011 -1.49493,1.90607 -0.561954,0.46321 -1.553186,0.94643 -2.246389,1.09509 -0.682355,0.14634 -1.686931,0.19365 -2.232393,0.10513 -0.545462,-0.0885 -1.535967,-0.53019 -2.201124,-0.98151 -0.681054,-0.4621 -1.447718,-1.28291 -1.754961,-1.87891 -0.379931,-0.737 -0.573891,-1.701 -0.63882,-3.175 -0.05128,-1.16417 -0.18664,-2.2154 -0.300794,-2.33607 -0.114155,-0.12068 -1.147758,-0.1374 -2.296896,-0.0371 l -2.089338,0.18225 -1.646775,1.49586 c -1.166997,1.06006 -1.648467,1.68756 -1.652585,2.15382 -0.0032,0.36188 -0.225148,1.14085 -0.493227,1.73106 -0.268079,0.5902 -0.999214,1.51117 -1.624744,2.0466 -0.62553,0.53544 -1.541361,1.04931 -2.035179,1.14195 -0.493819,0.0926 -1.491163,0.11143 -2.216321,0.0418 -0.942293,-0.0905 -1.59858,-0.35208 -2.300239,-0.91669 -0.539974,-0.4345 -1.243675,-1.17462 -1.563779,-1.64472 -0.320104,-0.4701 -0.661726,-1.38632 -0.759161,-2.03606 -0.107551,-0.71721 -0.04098,-1.66773 0.169451,-2.4193 0.225146,-0.80414 0.728171,-1.61951 1.435478,-2.32682 0.743316,-0.74331 1.483,-1.18812 2.330786,-1.40159 l 1.241912,-0.31272 v -3.0389 -3.03889 h -4.101041 -4.101042 v -1.32292 -1.32292 H 39.98988 37.344047 v -1.19062 -1.19063 H 35.491963 33.63988 v 2.11667 2.11667 h -0.926042 -0.926041 v 10.92729 c 0,8.16123 0.08057,11.00786 0.318286,11.24557 0.245948,0.24595 10.152985,0.30308 43.590105,0.25136 l 43.271822,-0.0669 z m -47.403581,8.54006 c 0.776483,-0.23059 1.654577,-0.74357 2.151279,-1.25677 0.4616,-0.47693 1.023898,-1.30981 1.249556,-1.85084 0.225655,-0.54103 0.410284,-1.1661 0.410284,-1.38906 v -0.40537 h -2.38125 -2.38125 V 98.63809 78.132882 h 2.497926 c 1.379881,0 2.571118,0.118424 2.661449,0.264583 0.08994,0.145521 0.290775,0.264583 0.446307,0.264583 0.183851,0 0.220787,-0.387704 0.105574,-1.108207 -0.09747,-0.609515 -0.421309,-1.542526 -0.719653,-2.073357 -0.298344,-0.530831 -1.031555,-1.282293 -1.62936,-1.669915 -0.832199,-0.53961 -1.417997,-0.704771 -2.499704,-0.704771 -0.86836,0 -1.791071,0.193996 -2.394434,0.503418 -0.539906,0.276881 -1.243854,0.784521 -1.564331,1.12809 -0.320476,0.34357 -0.766961,1.065708 -0.992187,1.604751 -0.26705,0.639138 -0.409504,1.811401 -0.409504,3.369826 v 2.389749 h -1.984375 -1.984375 v 4.101041 4.101042 h 2.391791 c 1.870951,0 2.618034,-0.115419 3.430736,-0.530032 0.57142,-0.291515 1.191755,-0.797531 1.378521,-1.124479 0.233387,-0.408551 0.38412,-2.37336 0.482013,-6.282989 0.07834,-3.128698 0.142433,4.193646 0.142433,16.271875 0,12.07823 -0.06409,19.38037 -0.142433,16.22698 l -0.142436,-5.73344 -0.603234,-0.815 c -0.331777,-0.44825 -0.487357,-0.815 -0.345731,-0.815 0.141626,0 0.442846,0.26462 0.66938,0.58804 l 0.411877,0.58804 v -0.68939 -0.68938 l -3.836459,-0.0385 -3.836458,-0.0385 v 4.22638 4.22639 l 1.256771,0.0806 1.256771,0.0807 0.153924,2.43326 0.153924,2.43326 0.705474,1.06604 c 0.388009,0.58632 1.004435,1.26193 1.369833,1.50135 0.365397,0.23942 1.109763,0.59427 1.654143,0.78856 0.544383,0.19429 1.117002,0.35849 1.272493,0.36487 0.155487,0.006 0.873111,-0.16372 1.594715,-0.37801 z m -0.66081,-1.50972 -1.429219,-0.54885 0.784847,-0.33 c 0.431665,-0.1815 1.052558,-0.41497 1.379757,-0.51882 l 0.594911,-0.18882 -0.335669,0.53749 -0.335667,0.53749 0.492284,0.54397 c 0.270756,0.29918 0.444064,0.53776 0.38513,0.53018 -0.05894,-0.008 -0.750303,-0.26077 -1.536374,-0.56264 z m -5.413831,-10.10571 -1.286803,-0.56692 1.02222,-0.36599 c 0.562218,-0.20129 1.200812,-0.43098 1.419093,-0.51042 l 0.396875,-0.14444 -0.380958,0.4679 -0.380955,0.46789 0.333142,0.53345 c 0.18323,0.2934 0.29513,0.56765 0.248666,0.60945 -0.04646,0.0418 -0.66354,-0.17911 -1.37128,-0.49092 z M 64.993525,86.639842 63.93571,86.164846 65.239095,85.72074 c 0.716862,-0.244261 1.342716,-0.444108 1.390785,-0.444108 0.04807,0 -0.05527,0.228457 -0.22965,0.507682 -0.249632,0.399722 -0.243219,0.596649 0.03015,0.926042 l 0.347208,0.418359 -0.363128,-0.0069 c -0.199718,-0.0038 -0.839142,-0.220686 -1.420939,-0.481936 z m 5.728819,-11.134416 -1.149832,-0.455922 1.34827,-0.560316 c 0.741545,-0.308173 1.348266,-0.471662 1.348266,-0.36331 0,0.108352 -0.130093,0.327097 -0.289094,0.486098 -0.209071,0.209071 -0.206494,0.443436 0.0093,0.846667 0.164124,0.306665 0.204917,0.545226 0.09066,0.530137 -0.114261,-0.01508 -0.72517,-0.232598 -1.357575,-0.483354 z M 93.008302,122.7815 c 0.795637,-0.43513 1.283158,-0.97899 1.810314,-2.01953 l 0.721442,-1.42404 0.0091,-20.320528 c 0.0061,-13.577083 -0.08076,-20.376047 -0.261623,-20.487828 -0.183668,-0.113512 -0.267393,6.324341 -0.260429,20.024775 l 0.01027,20.192071 -2.520604,0.0757 -2.520603,0.0757 V 98.365516 77.833154 l 2.64641,0.08372 2.64641,0.08372 -5.29e-4,-0.908653 c -2.65e-4,-0.499759 -0.25586,-1.435995 -0.567873,-2.080528 -0.372366,-0.769207 -0.970391,-1.427511 -1.740416,-1.915847 -0.645212,-0.409183 -1.626676,-0.820598 -2.181029,-0.914255 -0.554352,-0.09366 -1.525291,-0.03097 -2.157643,0.139304 -0.729541,0.196445 -1.55122,0.711081 -2.248297,1.408157 -0.645459,0.645459 -1.219649,1.534723 -1.392134,2.156028 -0.161462,0.581602 -0.294232,2.099257 -0.295042,3.372565 l -0.0015,2.315104 h -1.5875 -1.5875 v 4.232801 4.232805 l 3.836458,-0.03134 3.836459,-0.03133 V 88.93973 87.904059 l -0.821158,0.935246 c -0.451639,0.514387 -0.957654,0.931476 -1.12448,0.926867 -0.166827,-0.0046 0.02596,-0.25401 0.428382,-0.55422 0.402439,-0.300212 0.878689,-0.802457 1.058333,-1.116097 0.213741,-0.373166 0.37687,-2.399168 0.471993,-5.861926 0.07995,-2.910416 0.145032,4.53099 0.144627,16.536459 -5.29e-4,12.005472 -0.06582,19.268282 -0.145362,16.139592 -0.09675,-3.80555 -0.253551,-5.87881 -0.473684,-6.26334 -0.18098,-0.31614 -0.643522,-0.82215 -1.027869,-1.12448 l -0.698812,-0.54968 h -2.742444 -2.742443 v 4.36562 4.36563 h 1.719792 1.719791 v 1.72829 c 0,0.95055 0.173649,2.14389 0.385887,2.65185 0.212241,0.50795 0.781164,1.34252 1.264275,1.8546 0.483113,0.51207 1.351259,1.10573 1.929217,1.31924 0.628954,0.23236 1.516568,0.33423 2.210917,0.25375 0.63805,-0.0739 1.650082,-0.40243 2.248958,-0.72995 z m -3.202117,-0.68156 -1.115989,-0.45338 1.238684,-0.44542 c 0.681278,-0.24499 1.289738,-0.39438 1.352132,-0.33199 0.06239,0.0624 -0.02837,0.28432 -0.201692,0.49316 -0.214794,0.25881 -0.226801,0.4343 -0.0377,0.55117 0.152588,0.0943 0.277432,0.2835 0.277432,0.42043 0,0.13694 -0.0893,0.24232 -0.198438,0.23419 -0.109141,-0.008 -0.700633,-0.2188 -1.314426,-0.46816 z m -5.060606,-9.90753 -1.414092,-0.54173 1.266155,-0.48062 c 0.696384,-0.26434 1.319927,-0.42685 1.38565,-0.36113 0.06572,0.0657 -0.01315,0.27932 -0.175255,0.47465 -0.220337,0.26549 -0.192667,0.5009 0.10959,0.93244 0.222391,0.3175 0.367827,0.56397 0.323194,0.5477 -0.04463,-0.0163 -0.717489,-0.27336 -1.495242,-0.57131 z m -0.69913,-25.638534 c -0.72571,-0.286388 -1.352995,-0.554228 -1.393965,-0.595199 -0.04097,-0.04097 0.591611,-0.319863 1.405736,-0.619765 l 1.480225,-0.545277 -0.416989,0.460769 c -0.229346,0.253423 -0.416991,0.561081 -0.416991,0.683686 0,0.122605 0.197046,0.44065 0.437883,0.706771 0.240834,0.26612 0.389662,0.471675 0.330729,0.456787 -0.05894,-0.0149 -0.700918,-0.261382 -1.426628,-0.547772 z m 5.70955,-11.30481 c -0.652264,-0.264557 -1.037649,-0.552431 -0.87452,-0.653251 0.160412,-0.09914 0.778539,-0.352039 1.373622,-0.561993 l 1.081966,-0.381741 -0.400532,0.571836 -0.400529,0.571838 0.432528,0.477939 c 0.237892,0.262866 0.324779,0.471286 0.193085,0.463155 -0.131697,-0.0081 -0.764225,-0.227634 -1.40562,-0.487783 z M 56.394047,117.82038 v -1.32291 h -2.248958 -2.248958 v 1.32291 1.32292 h 2.248958 2.248958 z M 57.452381,98.902673 V 79.520592 l -0.396875,-0.329377 -0.396875,-0.329377 v 20.040835 20.040837 l 0.396875,-0.32938 0.396875,-0.32938 z M 75.444048,117.5558 v -1.32292 H 73.19509 70.946131 v 1.32292 1.32292 h 2.248959 2.248958 z M 76.502381,98.63809 V 79.256009 l -0.396875,-0.329377 -0.396875,-0.329378 v 20.040836 20.04084 l 0.396875,-0.32938 0.396875,-0.32938 z m 18.256251,18.65313 v -1.32292 h -2.248958 -2.248959 v 1.32292 1.32291 h 2.248959 2.248958 z m -35.520314,-0.62888 0.595313,-0.5217 V 98.883962 81.627281 l -0.935249,-0.821158 c -0.514385,-0.451636 -0.990635,-0.821158 -1.058334,-0.821158 -0.0677,0 -0.123084,8.527547 -0.123084,18.950104 v 18.950111 l 0.463021,-0.35057 c 0.254661,-0.19282 0.730912,-0.58534 1.058333,-0.87227 z M 79.148215,98.482581 V 81.371625 L 77.95759,80.395998 76.766965,79.420371 v 19.255094 19.255095 l 1.190625,-1.16851 1.190625,-1.16851 z m 19.036554,-0.241366 0.0039,-17.330208 -1.03577,-0.859896 c -0.569679,-0.472943 -1.103315,-0.859896 -1.185862,-0.859896 -0.08255,0 -0.150088,8.640339 -0.150088,19.200752 v 19.200753 l 1.18195,-1.01065 1.181946,-1.01065 0.0039,-17.330205 z M 61.950298,98.770382 V 81.572465 H 61.024256 60.098214 V 98.770382 115.9683 h 0.926042 0.926042 z M 81.264882,98.505798 V 81.307882 H 80.33884 79.412798 v 17.197916 17.197922 h 0.926042 0.926042 z M 100.31488,98.241215 V 81.043298 h -0.92604 -0.926041 v 17.197917 17.197915 h 0.926041 0.92604 z M 56.394047,113.19017 v -1.4552 h -2.248958 -2.248958 v 1.4552 1.45521 h 2.248958 2.248958 z m 19.050001,-0.26458 v -1.45521 H 73.19509 70.946131 v 1.45521 1.45521 h 2.248959 2.248958 z m 19.314584,-0.26458 v -1.45521 h -2.248958 -2.248959 v 1.45521 1.45521 h 2.248959 2.248958 z m -38.364585,-4.36563 v -1.85208 h -2.248958 -2.248958 v 1.85208 1.85209 h 2.248958 2.248958 z m 19.050001,-0.39687 v -1.71979 H 73.19509 70.946131 v 1.71979 1.71979 h 2.248959 2.248958 z m 19.314584,-0.26459 v -1.71979 h -2.248958 -2.248959 v 1.71979 1.7198 h 2.248959 2.248958 z m -5.55625,0.1323 v -0.79375 h -0.681583 -0.681582 l 0.615436,0.77911 c 0.33849,0.42851 0.645203,0.78569 0.681583,0.79375 0.03638,0.008 0.06615,-0.34255 0.06615,-0.77911 z M 50.837797,99.167257 v -8.334375 h -3.96875 -3.96875 v 8.334375 8.334373 h 3.96875 3.96875 z m 19.050001,-0.396875 v -8.202084 h -3.836459 -3.836458 v 8.202084 8.202088 h 3.836458 3.836459 z m -36.512501,5.953128 v -1.98438 h -0.79375 -0.79375 v 1.98438 1.98437 h 0.79375 0.79375 z m 55.827085,-6.217712 v -8.202083 h -3.836459 -3.836458 v 8.202083 8.202082 h 3.836458 3.836459 z m 19.049998,-0.264583 v -8.202083 h -3.83646 -3.83645 v 8.202083 8.202085 h 3.83645 3.83646 z M 42.635714,99.564132 V 94.272465 H 40.122172 37.60863 v 5.291667 5.291668 h 2.513542 2.513542 z m 13.758333,3.571878 v -1.71979 h -2.248958 -2.248958 v 1.71979 1.71979 h 2.248958 2.248958 z m 19.050001,-0.39688 v -1.5875 H 73.19509 70.946131 v 1.5875 1.5875 h 2.248959 2.248958 z m 19.314584,-0.26458 v -1.5875 h -2.248958 -2.248959 v 1.5875 1.5875 h 2.248959 2.248958 z m 18.785418,-4.101043 v -5.159375 h -2.51354 -2.51354 v 5.159375 5.159373 h 2.51354 2.51354 z m -76.200003,1.190625 v -2.910417 h -2.778125 -2.778125 v 2.910417 2.910418 h 2.778125 2.778125 z M 135.50447,98.63809 v -2.778125 h -10.84792 -10.84792 v 2.778125 2.77813 h 10.84792 10.84792 z M 56.394047,97.712048 v -2.116666 h -2.248958 -2.248958 v 2.116666 2.116667 h 2.248958 2.248958 z M 75.444048,97.315173 V 95.330798 H 73.19509 70.946131 v 1.984375 1.984375 h 2.248959 2.248958 z M 94.758632,97.05059 v -1.984375 h -2.248958 -2.248959 v 1.984375 1.984375 h 2.248959 2.248958 z M 33.375297,94.404757 v -1.984375 h -0.79375 -0.79375 v 1.984375 1.984375 h 0.79375 0.79375 z m 3.96875,0.79375 v -1.190625 h 2.645833 2.645834 V 92.28809 90.568298 h 4.101042 4.101041 V 77.20684 63.845381 h -3.96875 -3.96875 v 1.190625 1.190625 h 2.38125 2.38125 v 1.322917 1.322917 H 40.23707 c -4.612768,0 -7.619594,0.103754 -7.937501,0.273892 l -0.511772,0.273893 v 11.367773 11.367775 h 0.926041 0.926042 v 2.116667 2.116667 h 1.852083 1.852084 z m 19.05,-3.175 v -1.719792 h -2.248958 -2.248958 v 1.719792 1.719791 h 2.248958 2.248958 z M 75.444048,91.758923 V 90.039132 H 73.19509 70.946131 v 1.719791 1.719792 h 2.248959 2.248958 z M 94.758632,91.49434 v -1.719792 h -2.248958 -2.248959 v 1.719792 1.719792 h 2.248959 2.248958 z M 69.887798,89.460464 v -0.843251 l -0.858573,0.777105 c -0.472218,0.427408 -0.90878,0.806871 -0.97014,0.843251 -0.06136,0.03638 0.324998,0.06615 0.858573,0.06615 h 0.97014 z M 56.394047,86.599548 v -1.852083 h -2.248958 -2.248958 v 1.852083 1.852084 h 2.248958 2.248958 z M 75.444048,86.202673 V 84.218298 H 73.19509 70.946131 v 1.984375 1.984375 h 2.248959 2.248958 z M 94.758632,85.93809 v -1.984375 h -2.248958 -2.248959 v 1.984375 1.984375 h 2.248959 2.248958 z M 56.394047,80.778715 v -2.116667 h -2.248958 -2.248958 v 2.116667 2.116667 h 2.248958 2.248958 z M 75.444048,80.514132 V 78.397465 H 73.19509 70.946131 v 2.116667 2.116666 h 2.248959 2.248958 z m 19.314584,-0.264584 v -2.116666 h -2.248958 -2.248959 v 2.116666 2.116667 h 2.248959 2.248958 z M 65.919048,79.36512 v -2.471925 l 0.610394,-1.166096 c 0.374615,-0.715663 1.101574,-1.498245 1.881986,-2.025988 l 1.27159,-0.859896 h 1.552245 c 0.853733,0 2.001136,0.186589 2.549784,0.414643 0.548648,0.228054 1.282994,0.774103 1.631879,1.213447 0.348885,0.43934 0.790143,1.235016 0.980575,1.768168 0.190431,0.533151 0.351464,1.401508 0.357851,1.929683 l 0.01161,0.960316 1.138632,0.933021 1.138632,0.933024 2.672813,0.189492 2.672816,0.189494 0.09116,-2.74429 c 0.07099,-2.137023 0.212376,-2.975361 0.638951,-3.788523 0.301283,-0.574332 0.961652,-1.379205 1.467485,-1.78861 0.537419,-0.434969 1.519462,-0.867564 2.362628,-1.040749 1.082525,-0.222349 1.724661,-0.218901 2.570883,0.0138 0.620374,0.170599 1.550122,0.68085 2.066107,1.133892 0.515988,0.453041 1.169268,1.276726 1.451735,1.830409 0.287348,0.56325 0.519094,1.564947 0.526097,2.274009 l 0.01251,1.267312 1.406268,1.124479 1.406269,1.124479 h 1.094753 1.094749 V 72.312047 63.84538 H 97.536748 94.49404 v 1.190625 1.190625 h 1.852083 1.852084 v 1.322917 1.322917 H 79.412796 60.627378 V 67.549547 66.22663 h 2.778125 2.778125 V 65.036005 63.84538 h -4.233333 -4.233333 l 0.01365,7.871355 0.01365,7.871354 1.073287,0.859896 c 0.844619,0.67669 1.320864,0.859896 2.235303,0.859896 0.639107,0 1.162013,0.119062 1.162013,0.264583 0,0.151191 0.79375,0.264583 1.852084,0.264583 h 1.852083 v -2.471928 z m 37.067752,5.924452 c -0.64416,-0.255193 -1.03495,-0.541454 -0.87452,-0.640601 0.15951,-0.09858 0.76992,-0.348559 1.35645,-0.555503 l 1.06643,-0.376259 -0.3217,0.515128 c -0.25342,0.405799 -0.25156,0.627436 0.009,1.044295 0.18176,0.291041 0.24016,0.516821 0.12979,0.501732 -0.11038,-0.01508 -0.72472,-0.235046 -1.36522,-0.488792 z m 2.31455,-7.402872 -0.0917,-1.304515 0.40664,0.368448 c 0.24592,0.222838 0.65719,0.302927 1.04063,0.202655 l 0.634,-0.165796 -0.77605,1.096211 c -0.42683,0.602917 -0.85386,1.098757 -0.94895,1.101863 -0.0951,0.0031 -0.21416,-0.581382 -0.26459,-1.298866 z M 53.656556,76.14938 c 0.223291,-0.655323 0.502662,-1.191498 0.620825,-1.191498 0.118162,0 0.397533,0.536175 0.620825,1.191498 l 0.405984,1.191498 -0.513405,-0.274765 c -0.354953,-0.189965 -0.671855,-0.189965 -1.026809,0 l -0.513405,0.274765 z m -0.351198,-4.412423 c 0.07914,-0.193023 0.289534,-0.797435 0.467545,-1.343138 0.17801,-0.545703 0.405025,-0.992187 0.504478,-0.992187 0.09945,0 0.326468,0.446484 0.504478,0.992187 0.17801,0.545703 0.388405,1.150115 0.467544,1.343138 l 0.143889,0.35095 -0.557956,-0.348449 -0.557955,-0.348449 -0.557956,0.348449 -0.557955,0.348449 z m 52.723602,-4.451992 -0.72002,-1.322917 h 0.54568 0.54568 v -4.365625 -4.365625 h 0.52917 0.52916 v 4.365625 4.365625 h 0.39688 c 0.21828,0 0.39687,0.07884 0.39687,0.175192 0,0.09636 -0.30267,0.691668 -0.67261,1.322917 -0.36994,0.631248 -0.7082,1.147725 -0.7517,1.147725 -0.0435,0 -0.4031,-0.595313 -0.79911,-1.322917 z M 54.012797,62.91934 v -4.365625 h -0.529166 c -0.291042,0 -0.529167,-0.06375 -0.529167,-0.141663 0,-0.07791 0.341664,-0.739894 0.759253,-1.471066 l 0.759254,-1.329402 0.797007,1.40492 0.797008,1.404919 -0.497928,0.08455 -0.497927,0.08455 v 4.347223 4.347223 h -0.529167 -0.529167 z"
         id="path876"
         inkscape:connector-curvature="0" />
    </g>
  </g>
</svg>
