<?xml version="1.0" encoding="UTF-8" standalone="no"?>
<!-- Created with Inkscape (http://www.inkscape.org/) -->

<svg
   xmlns:dc="http://purl.org/dc/elements/1.1/"
   xmlns:cc="http://creativecommons.org/ns#"
   xmlns:rdf="http://www.w3.org/1999/02/22-rdf-syntax-ns#"
   xmlns:svg="http://www.w3.org/2000/svg"
   xmlns="http://www.w3.org/2000/svg"
   xmlns:sodipodi="http://sodipodi.sourceforge.net/DTD/sodipodi-0.dtd"
   xmlns:inkscape="http://www.inkscape.org/namespaces/inkscape"
   version="1.1"
   id="svg2"
   width="794.23999"
   height="1122.5601"
   viewBox="0 0 794.23999 1122.5601"
   sodipodi:docname="cover_2.svg"
   inkscape:version="0.92.2 (5c3e80d, 2017-08-06)">
  <metadata
     id="metadata8">
    <rdf:RDF>
      <cc:Work
         rdf:about="">
        <dc:format>image/svg+xml</dc:format>
        <dc:type
           rdf:resource="http://purl.org/dc/dcmitype/StillImage" />
        <dc:title />
      </cc:Work>
    </rdf:RDF>
  </metadata>
  <defs
     id="defs6" />
  <sodipodi:namedview
     pagecolor="#ffffff"
     bordercolor="#666666"
     borderopacity="1"
     objecttolerance="10"
     gridtolerance="10"
     guidetolerance="10"
     inkscape:pageopacity="0"
     inkscape:pageshadow="2"
     inkscape:window-width="1600"
     inkscape:window-height="837"
     id="namedview4"
     showgrid="false"
     inkscape:snap-smooth-nodes="true"
     inkscape:zoom="3.6203867"
     inkscape:cx="609.49552"
     inkscape:cy="114.76605"
     inkscape:window-x="-8"
     inkscape:window-y="135"
     inkscape:window-maximized="1"
     inkscape:current-layer="svg2" />
  <path
     inkscape:connector-curvature="0"
     id="path4493"
     d="m 535.74895,1078.3941 c -5.26265,-1.3788 -9.88086,-4.9134 -11.94966,-9.1459 l -1.0793,-2.2081 -0.0944,-15.44 -0.0943,-15.44 h 5.29434 5.29436 l 0.007,12.88 c 0.006,11.8876 0.0531,12.9815 0.60516,14.1971 1.50851,3.3219 6.05881,4.8303 10.02438,3.3231 0.92589,-0.3519 1.69664,-0.6399 1.71277,-0.64 0.0163,-10e-5 0.21248,0.6118 0.43635,1.3598 0.71133,2.377 2.26496,5.0896 3.91341,6.8325 l 1.59782,1.6895 -1.97011,0.9945 c -4.28362,2.1624 -9.30614,2.7481 -13.69786,1.5975 z M 351.68,1000.1299 c 0.264,-0.064 4.152,-0.69624 8.64,-1.40556 46.80259,-7.39702 92.56227,-18.00227 135.35999,-31.37104 14.12512,-4.41229 31.79604,-10.35801 42.24,-14.21254 13.42759,-4.95565 26.43875,-10.0105 36.16,-14.04816 14.05747,-5.83872 16.03277,-6.68749 28.8,-12.37537 31.48029,-14.0246 66.55991,-31.98144 100,-51.1888 23.23798,-13.34746 47.55274,-28.19568 62.88,-38.39872 4.664,-3.10474 8.66,-5.75354 8.88,-5.88621 0.31888,-0.19229 0.4,5.87395 0.4,29.91101 0,16.58374 -0.086,30.06624 -0.19107,29.96115 -0.20845,-0.20844 -2.02346,0.60122 -10.04893,4.48279 -6.77222,3.27542 -7.01142,3.3864 -22.08,10.24608 -17.36333,7.90432 -58.51216,24.07008 -75.2,29.54311 -0.968,0.31747 -4.784,1.60092 -8.48,2.85212 -32.06969,10.85652 -71.09577,21.96321 -104.64,29.78026 -3.168,0.73824 -6.264,1.45002 -6.88,1.5817 -0.616,0.13171 -3.424,0.76701 -6.24,1.41177 -46.9526,10.75095 -105.27977,20.40404 -158.55999,26.24157 -20.3689,2.23169 -33.35812,3.43474 -31.04,2.87484 z"
     style="fill:#81a848;stroke-width:0.32000002" />
  <path
     inkscape:connector-curvature="0"
     id="path4491"
     d="m 561.59999,1078.5578 c -5.05453,-1.2321 -9.63065,-4.4603 -11.91164,-8.4031 -1.70695,-2.9505 -1.84836,-4.4728 -1.84836,-19.8978 v -14.0968 h 5.44 5.44 v 12.9759 c 0,11.3157 0.0662,13.1069 0.51744,14 1.33706,2.6463 3.44643,3.8735 6.68919,3.8916 2.84764,0.016 4.97648,-0.9809 6.39043,-2.9921 l 0.96294,-1.3697 0.0902,-13.2528 0.0902,-13.2529 h 5.28147 5.28147 l -0.0917,15.4474 -0.0917,15.4474 -1.08525,2.2038 c -3.4608,7.0277 -13.09644,11.2633 -21.15475,9.2991 z M 123.52,992.31564 C 92.694764,991.57932 41.198905,989.37142 22,987.96294 l -2.8,-0.20541 V 967.2934 946.82924 l 0.88,0.17968 c 1.875933,0.38307 12.374633,2.14835 18.32,3.08038 40.963167,6.42163 80.27105,10.48416 122.08,12.61712 20.6527,1.0536 30.73704,1.27578 57.92,1.276 27.13404,2.3e-4 35.95682,-0.19529 57.44,-1.27277 114.92656,-5.76406 227.36559,-28.84057 332.94924,-68.33309 6.50611,-2.43354 11.87043,-4.38346 11.92074,-4.33315 0.25977,0.25974 -24.96519,12.21885 -39.74999,18.84541 -98.53523,44.16342 -194.80748,69.33101 -301.91999,78.92823 -22.3577,2.00323 -40.06649,3.07401 -69.6,4.20845 -11.15814,0.42857 -71.58172,0.63264 -85.92,0.29014 z"
     style="fill:#2f4e8d;stroke-width:0.32000002" />
  <path
     inkscape:connector-curvature="0"
     id="path4489"
     d="m 535.03999,1045.1033 c 0,-11.6558 0.087,-14.4792 0.50218,-16.3047 1.85766,-8.1676 12.29277,-14.0106 21.45241,-12.0119 4.9217,1.0739 9.54756,3.9887 11.8848,7.4888 2.32132,3.4762 2.32528,3.5104 2.32282,20.1246 l -0.003,14.8 h -5.26982 -5.2698 l -0.0902,-13.2569 c -0.0863,-12.6843 -0.11783,-13.2938 -0.73018,-14.1092 -1.99331,-2.6545 -5.06173,-3.9917 -7.88035,-3.4344 -2.30902,0.4566 -4.42486,1.8943 -5.30304,3.6033 -0.73526,1.431 -0.73843,1.4926 -0.7375,14.3172 v 12.88 h -5.44 -5.44 v -14.0968 z M 19.2,1001.7114 v -11.40856 l 3.28,0.20016 c 8.221114,0.50173 40.868844,2.16512 51.119999,2.60454 71.181921,3.05136 129.678551,2.69818 184.320001,-1.11289 42.75562,-2.98205 84.55196,-8.48554 123.84,-16.3065 94.29846,-18.77174 184.75023,-52.45092 281.95442,-104.98401 43.68157,-23.6073 77.91114,-45.24109 106.91383,-67.57172 2.23753,-1.72278 4.14553,-3.13235 4.24,-3.13235 0.0945,0 0.17174,6.56963 0.17174,14.59917 0,12.46615 -0.0653,14.54496 -0.4473,14.228 -0.3575,-0.29673 -2.011,0.68224 -8.24,4.87856 -14.85609,10.00826 -36.33139,23.19568 -61.7127,37.89623 -35.76621,20.71536 -72.62713,39.51981 -108.48,55.34064 -106.73081,47.09722 -213.10083,72.21102 -344.63999,81.36893 -51.54024,3.5884 -97.53652,4.7972 -182.800001,4.8044 H 19.2 Z"
     style="fill:#9a283a;stroke-width:0.32000002" />
  <rect
     style="opacity:0;fill:none;fill-opacity:1;stroke:none;stroke-width:0.37795275;stroke-miterlimit:4;stroke-dasharray:none;stroke-opacity:1;paint-order:markers stroke fill"
     id="rect4501"
     width="755.30084"
     height="1075.9584"
     x="20"
     y="26.560064" />
  <rect
     style="opacity:0;fill:none;fill-opacity:1;stroke:none;stroke-width:0.37795275;stroke-miterlimit:4;stroke-dasharray:none;stroke-opacity:1;paint-order:markers stroke fill"
     id="rect4506"
     width="4.0900974"
     height="2.5407331"
     x="15.909903"
     y="1102.5184" />
  <text
     xml:space="preserve"
     style="font-style:normal;font-weight:normal;line-height:1.25;font-family:sans-serif;letter-spacing:0px;word-spacing:0px;baseline-shift:baseline;fill:#000000;fill-opacity:1;stroke:none"
     x="45.825905"
     y="1078.277"
     id="text4516"><tspan
       sodipodi:role="line"
       id="tspan4514"
       x="45.825905"
       y="1078.277"
       style="font-style:normal;font-variant:normal;font-weight:bold;font-stretch:normal;font-size:14.66666698px;font-family:Calibri;-inkscape-font-specification:'Calibri Bold';baseline-shift:baseline">I<tspan
   style="font-size:16px"
   id="tspan4539">t all starts here</tspan><tspan
   style="font-size:6.66666683px;baseline-shift:super"
   id="tspan4529">TM</tspan></tspan></text>
  <flowRoot
     xml:space="preserve"
     id="flowRoot4545"
     style="font-style:normal;font-weight:normal;font-size:10.66666698px;line-height:1.25;font-family:sans-serif;letter-spacing:0px;word-spacing:0px;fill:#000000;fill-opacity:1;stroke:none"
     transform="translate(5.5,17.5)"><flowRegion
       id="flowRegion4547"><rect
         id="rect4549"
         width="174.5"
         height="43.999939"
         x="589"
         y="1014.5601" /></flowRegion><flowPara
       id="flowPara4551"
       style="font-style:normal;font-variant:normal;font-weight:normal;font-stretch:normal;font-size:11.33333397px;line-height:0px;font-family:Calibri;-inkscape-font-specification:Calibri">NORTH-WEST UNIVERSITY       </flowPara><flowPara
       id="flowPara4553"
       style="font-style:normal;font-variant:normal;font-weight:normal;font-stretch:normal;font-size:11.33333397px;line-height:0px;font-family:Calibri;-inkscape-font-specification:Calibri">YUNIBESITI YA BOKONE-BOPHIRIMA</flowPara><flowPara
       id="flowPara4555"
       style="font-style:normal;font-variant:normal;font-weight:normal;font-stretch:normal;font-size:11.33333397px;line-height:0px;font-family:Calibri;-inkscape-font-specification:Calibri">NOORDWES-UNIVERSITEIT</flowPara></flowRoot>  <flowRoot
     xml:space="preserve"
     id="flowRoot4563"
     style="font-style:normal;font-weight:normal;font-size:10.66666698px;line-height:1.25;font-family:sans-serif;letter-spacing:0px;word-spacing:0px;fill:#000000;fill-opacity:1;stroke:none"
     transform="translate(-7.5,20)"><flowRegion
       id="flowRegion4565"><rect
         id="rect4567"
         width="22"
         height="16.5"
         x="753"
         y="1005.5601" /></flowRegion><flowPara
       id="flowPara4569"
       style="font-size:9.33333397px">®</flowPara></flowRoot>  <rect
     style="opacity:0.49300005;fill:none;fill-opacity:1;stroke:#323135;stroke-width:1.07234645;stroke-miterlimit:4;stroke-dasharray:none;stroke-opacity:1;paint-order:markers stroke fill"
     id="rect4579"
     width="756.76257"
     height="1083.4209"
     x="18.748341"
     y="19.097134"
     rx="1.0236959"
     ry="1.258184" />
  <rect
     style="opacity:0.49300005;fill:none;fill-opacity:1;stroke:#ffffff;stroke-width:0.37795275;stroke-miterlimit:4;stroke-dasharray:none;stroke-opacity:1;paint-order:markers stroke fill"
     id="rect4581"
     width="795.49518"
     height="1126.9515"
     x="0"
     y="-2.1816685"
     rx="1.0237"
     ry="1.25818" />
</svg>
